# xmcd
#
# Track frame offsets: 
#        150
#        26475
#        41955
#        77100
#        106275
#        134732
#        178312
#        200025
#        226837
#        244462
#        260775
#        287250
#
# Disc length: 4161 seconds
#
# Revision: 0
# Processed by: cddbd v1.5.2PL0 Copyright (c) Steve Scherf et al.
# Submitted via: ExactAudioCopy v0.99pb5
#
DISCID=b6103f0c
DTITLE=Phil Guy and Dario Lombardo Blues Gang - Working Together
DYEAR=1999
DGENRE=Blues
TTITLE0=Turning Point
TTITLE1=On Darling
TTITLE2=Fixin' To Die
TTITLE3=Same Thing
TTITLE4=Mellow Down Easy
TTITLE5=That's Allright
TTITLE6=I Feel Sexy
TTITLE7=Tip On In
TTITLE8=Slip Away
TTITLE9=Ooh Pooh Poh Doo
TTITLE10=Love Bone
TTITLE11=Troubles
EXTD=
EXTT0=
EXTT1=
EXTT2=
EXTT3=
EXTT4=
EXTT5=
EXTT6=
EXTT7=
EXTT8=
EXTT9=
EXTT10=
EXTT11=
PLAYORDER=
